<?xml version="1.0" standalone="no"?>
<!DOCTYPE svg PUBLIC "-//W3C//DTD SVG 20010904//EN"
 "http://www.w3.org/TR/2001/REC-SVG-20010904/DTD/svg10.dtd">
<svg version="1.0" xmlns="http://www.w3.org/2000/svg"
 width="640.000000pt" height="640.000000pt" viewBox="0 0 640.000000 640.000000"
 preserveAspectRatio="xMidYMid meet">
<metadata>
Created by potrace 1.14, written by Peter Selinger 2001-2017
</metadata>
<g transform="translate(0.000000,640.000000) scale(0.100000,-0.100000)"
fill="#000000" stroke="none">
<path d="M0 6329 c0 -62 2 -70 18 -67 14 3 17 12 14 50 -1 27 3 50 9 54 20 12
4 -187 -15 -202 -19 -13 -27 -72 -14 -96 8 -17 39 -18 428 -18 l420 0 0 145
c0 138 1 145 20 145 16 0 20 7 20 31 0 27 -2 30 -15 19 -8 -7 -13 -16 -10 -20
3 -5 1 -11 -5 -15 -6 -4 -10 5 -10 19 l0 26 -430 0 -430 0 0 -71z m115 -239
c-3 -5 -12 -7 -20 -3 -21 7 -19 13 6 13 11 0 18 -4 14 -10z m588 -7 c-7 -2
-19 -2 -25 0 -7 3 -2 5 12 5 14 0 19 -2 13 -5z"/>
<path d="M1840 6238 c0 -89 3 -159 6 -155 11 11 15 317 4 317 -6 0 -10 -59
-10 -162z"/>
<path d="M1880 6392 c0 -14 11 -21 26 -15 8 3 11 9 8 14 -7 11 -34 12 -34 1z"/>
<path d="M2195 6370 c-4 -16 -4 -38 -1 -47 11 -40 17 -153 7 -153 -6 0 -6 -11
-1 -28 4 -17 4 -36 -2 -46 -7 -12 -6 -22 3 -32 9 -11 9 -18 2 -22 -6 -4 -10
-20 -10 -37 0 -16 -3 -60 -6 -97 -4 -42 -3 -68 3 -68 6 0 10 5 10 12 0 6 3 8
7 5 3 -4 -2 -16 -11 -26 -10 -11 -15 -25 -11 -30 3 -7 -2 -11 -14 -11 -12 0
-21 8 -24 23 l-4 22 -2 -22 c-1 -19 -8 -22 -48 -25 -52 -3 -58 -22 -8 -25 17
-1 36 -2 43 -2 8 -1 12 -19 12 -55 l0 -53 -37 3 c-117 8 -239 14 -406 19 -183
5 -188 5 -182 -14 3 -11 1 -22 -4 -25 -6 -4 -10 -72 -10 -161 l-1 -155 27 0
c17 0 24 -3 17 -10 -5 -5 -59 -11 -119 -12 l-110 -3 -3 -27 c-2 -17 4 -34 18
-48 23 -23 20 -50 -4 -50 -33 0 -36 37 -36 361 1 185 -3 326 -8 331 -5 5 -131
10 -283 11 l-274 2 -2 -65 c-1 -36 -4 -193 -7 -350 -6 -379 -15 -632 -21 -638
-3 -3 -11 0 -17 6 -17 17 -48 15 -55 -4 -5 -14 -8 -14 -22 4 -15 20 -25 21
-206 22 -104 0 -202 1 -217 0 l-28 0 0 -104 0 -103 25 5 c14 2 41 1 61 -2 44
-9 40 -32 -5 -28 -30 3 -31 2 -25 -22 5 -21 2 -26 -12 -27 -11 0 -35 -1 -54
-2 l-35 -2 4 185 c2 102 7 190 13 197 6 7 5 14 -2 18 -5 3 -11 23 -11 43 -1
20 -3 29 -6 20 -8 -30 -21 -20 -21 16 0 19 -3 40 -7 46 -4 6 -1 18 6 26 10 12
9 13 -3 9 -10 -4 -24 5 -38 24 -12 17 -26 31 -31 31 -17 0 -9 -53 17 -107 26
-57 29 -103 5 -111 -10 -3 -12 6 -10 41 3 31 0 43 -8 40 -8 -3 -12 -99 -12
-364 -1 -354 -1 -359 19 -359 17 0 20 -6 20 -45 0 -47 -12 -58 -29 -27 -8 12
-10 -3 -11 -60 0 -55 4 -78 13 -79 6 -1 21 -2 31 -3 32 -2 29 -23 -3 -23 -17
0 -28 4 -25 9 3 4 0 8 -5 8 -7 0 -11 -23 -11 -54 0 -51 1 -54 23 -49 18 4 20
3 7 -7 -13 -10 -12 -11 5 -5 11 4 36 8 55 11 34 3 34 3 5 -5 -28 -8 -26 -9 17
-10 26 0 49 -5 52 -9 3 -5 -15 -7 -40 -6 -24 2 -44 -1 -44 -7 0 -5 -18 -9 -41
-9 -39 0 -40 -1 -37 -32 2 -25 8 -34 24 -36 11 -2 26 3 32 10 7 9 26 12 51 10
51 -5 43 -22 -10 -22 -63 0 -45 -17 21 -19 44 -1 60 1 60 11 0 9 3 9 10 -2 7
-12 12 -12 22 -2 6 6 21 12 31 12 17 0 17 -2 -6 -20 -21 -17 -42 -20 -131 -21
l-106 -2 0 -44 c0 -39 2 -43 26 -43 17 0 23 4 18 13 -6 9 -3 8 8 -1 11 -9 40
-13 82 -11 36 1 68 0 71 -3 10 -9 -57 -16 -133 -13 l-72 3 0 -1869 0 -1869
498 0 c286 0 491 4 482 9 -8 5 -67 14 -130 20 -133 13 -327 39 -385 51 -31 6
-34 8 -15 10 32 3 27 3 80 -4 45 -6 45 -6 15 8 -37 18 -51 12 205 74 368 90
349 86 375 74 16 -7 35 -8 59 -1 39 11 43 18 24 38 -11 11 -7 12 20 6 24 -5
33 -3 38 9 3 9 17 16 31 16 21 0 23 -3 14 -14 -10 -11 -8 -16 9 -21 27 -9 36
0 21 19 -11 13 -9 16 11 20 12 2 65 14 116 26 51 12 96 20 98 17 9 -8 -52 -37
-78 -37 -23 -1 -58 -21 -58 -35 0 -8 35 -3 118 16 28 6 52 16 52 20 0 15 106
10 136 -6 l29 -15 -35 -1 c-33 0 -86 -16 -65 -19 6 -1 40 -1 78 0 66 1 85 -9
51 -28 -15 -8 -15 -10 1 -15 9 -4 13 -11 10 -17 -8 -13 25 -13 45 0 13 9 13
11 0 20 -12 8 -9 10 13 10 15 0 30 -7 33 -15 4 -9 19 -15 35 -15 27 0 28 2 17
20 -7 11 -19 20 -27 20 -11 0 -12 3 -4 11 9 9 42 7 128 -5 91 -14 120 -15 131
-5 11 9 18 8 32 -5 10 -9 27 -16 38 -16 16 0 15 -2 -6 -15 -33 -19 -36 -20
-95 -35 -63 -17 -98 -15 -130 6 -15 10 -32 13 -42 9 -30 -13 -271 -12 -266 1
4 11 -183 62 -192 52 -3 -3 1 -18 9 -34 8 -16 18 -37 21 -48 5 -16 12 -18 52
-12 l47 6 -50 -25 c-50 -26 -74 -31 -74 -17 0 4 -16 6 -35 4 -21 -3 -35 0 -35
7 0 6 -5 11 -10 11 -6 0 -24 10 -41 22 -37 27 -102 33 -94 9 3 -12 -5 -19 -32
-28 -31 -9 -41 -8 -72 9 -20 11 -41 24 -47 29 -17 14 -124 40 -135 33 -6 -3
-8 -12 -5 -20 4 -10 -3 -14 -23 -14 -17 0 -36 -10 -50 -26 l-23 -27 28 -23
c33 -27 40 -28 50 -12 4 6 -3 19 -15 29 -27 22 -18 43 14 35 13 -3 36 1 51 9
40 21 56 19 90 -10 16 -14 33 -25 37 -25 5 0 7 -6 4 -12 -3 -12 48 -58 64 -58
4 0 20 -5 35 -10 26 -10 26 -11 8 -24 -10 -8 -17 -16 -14 -19 6 -6 111 15 128
26 6 5 18 5 24 0 7 -4 26 -6 41 -4 50 5 106 -9 100 -25 -4 -12 9 -14 81 -13
47 1 86 5 86 9 0 14 -52 50 -71 50 -29 0 -23 29 9 42 15 7 34 18 44 26 11 9
18 10 23 3 3 -6 24 -11 45 -11 42 0 62 -16 33 -27 -14 -6 -10 -9 17 -14 47
-10 72 4 42 22 -28 17 -28 40 -1 57 20 13 21 12 15 -12 -7 -27 -1 -32 24 -16
9 5 19 5 26 -1 8 -7 17 -4 28 6 9 9 16 12 16 7 0 -17 83 -20 130 -4 57 19 132
21 137 5 5 -15 33 -17 33 -3 0 6 -7 10 -15 10 -8 0 -15 5 -15 10 0 6 6 10 13
10 7 0 28 8 47 18 19 11 41 17 48 14 20 -6 202 40 196 50 -8 13 66 40 85 32
15 -7 22 -9 46 -13 6 -1 3 -6 -5 -11 -27 -17 4 -31 85 -37 77 -6 79 -6 100 22
20 23 27 26 56 20 29 -7 31 -9 16 -20 -9 -7 -17 -17 -17 -24 0 -6 -5 -11 -11
-11 -6 0 -24 -11 -39 -24 l-29 -23 25 -12 c32 -14 37 -75 8 -97 -8 -6 -14 -21
-14 -33 0 -19 5 -21 59 -21 l60 0 -2 38 c-2 31 -7 38 -27 41 -23 3 -24 4 -5
12 17 7 17 8 -7 8 -16 1 -28 5 -28 10 0 13 16 22 24 13 10 -10 149 -2 160 9 6
5 33 9 60 9 35 0 46 3 36 9 -8 6 -18 7 -22 5 -14 -9 -48 7 -48 22 0 8 5 14 10
14 6 0 10 -5 10 -11 0 -8 32 -9 113 -3 61 5 130 8 152 7 22 -1 65 5 95 14 61
17 147 13 202 -10 l33 -14 -65 -7 c-82 -9 -100 -15 -97 -28 1 -6 -4 -13 -10
-15 -7 -3 -13 2 -13 11 0 9 -7 16 -15 16 -8 0 -15 -4 -15 -8 0 -5 -18 -15 -40
-22 -21 -7 -37 -16 -35 -20 3 -5 -14 -10 -38 -13 -23 -2 -52 -8 -64 -12 -16
-5 -23 -3 -23 6 0 17 -68 65 -78 55 -4 -4 -7 -20 -7 -34 0 -18 -6 -28 -19 -30
-14 -3 -17 0 -13 12 10 26 -23 19 -50 -10 -25 -27 -42 -28 -110 -8 -14 4 -23
2 -23 -5 0 -6 6 -11 14 -11 9 0 12 -7 9 -20 -6 -23 3 -25 43 -10 30 12 47 4
24 -10 -10 -6 37 -10 131 -10 133 0 147 2 164 20 10 11 14 20 9 20 -11 1 26
30 38 30 4 0 8 -7 8 -15 0 -11 12 -15 48 -16 26 0 69 -4 95 -8 26 -4 50 -4 53
0 3 5 -13 12 -36 15 -22 4 -42 10 -45 14 -10 16 25 45 54 46 17 1 45 2 61 3
19 1 30 6 30 16 0 8 9 15 20 15 17 0 17 -2 -6 -27 -23 -25 -24 -28 -8 -40 9
-7 21 -10 25 -7 5 3 18 0 29 -6 25 -14 63 -3 56 15 -4 11 9 13 57 13 34 -1 74
2 90 7 44 12 24 -20 -25 -40 -22 -9 -39 -17 -37 -19 2 -2 32 -11 67 -20 55
-14 66 -14 84 -2 13 9 35 13 59 10 28 -3 52 2 90 21 28 15 53 24 55 22 6 -5
-63 -47 -76 -47 -5 0 -12 -4 -15 -10 -4 -6 38 -9 117 -8 68 1 106 4 84 6 -35
3 -37 4 -20 17 21 16 79 20 70 6 -4 -5 15 -7 43 -4 31 3 66 -1 95 -11 65 -22
401 -24 393 -2 -7 17 42 29 59 15 7 -6 22 -5 40 1 15 6 40 8 55 5 36 -8 50 14
21 33 l-22 14 25 20 c14 10 40 22 59 25 26 4 36 11 38 27 3 22 46 35 133 40
22 1 60 11 85 22 25 12 75 31 113 43 37 13 67 27 67 33 0 6 7 7 16 4 8 -3 73
13 144 37 110 36 128 45 127 62 -1 11 4 20 13 20 8 0 45 11 83 23 37 12 74 19
82 16 8 -3 27 3 42 14 50 35 99 47 142 36 32 -9 38 -8 34 3 -3 7 2 13 11 13 9
0 16 5 16 10 0 10 -43 15 -90 11 -36 -3 -11 19 32 28 31 7 33 9 30 43 -4 39
15 58 57 58 16 0 21 6 21 25 0 26 -26 35 -45 16 -13 -12 -87 -39 -144 -53 -26
-6 -39 -13 -31 -18 9 -5 8 -9 -4 -13 -8 -3 -17 -1 -20 6 -3 9 -5 8 -5 -1 -1
-7 -5 -11 -10 -8 -4 3 -33 -3 -64 -14 -31 -11 -67 -20 -79 -20 -28 0 -119 -56
-115 -71 1 -6 -47 -31 -108 -56 -60 -24 -116 -50 -124 -56 -11 -9 -15 -9 -18
1 -7 19 -31 14 -38 -8 -7 -21 -25 -28 -25 -9 0 6 -6 9 -12 7 -7 -3 -13 -11
-13 -19 0 -16 -92 -52 -108 -42 -6 4 -7 1 -2 -7 6 -10 4 -12 -8 -7 -21 8 -247
-72 -247 -87 0 -14 -100 -37 -129 -29 -12 3 -21 1 -21 -5 0 -6 -20 -20 -44
-30 -24 -11 -46 -25 -50 -31 -8 -12 -45 19 -38 33 10 18 -23 24 -51 10 -16 -9
-31 -14 -33 -11 -3 2 4 24 15 49 l19 45 -46 10 c-68 15 -106 10 -111 -13 -1
-10 -10 -27 -18 -36 -13 -15 -13 -18 -2 -22 8 -2 21 -7 29 -9 40 -14 -72 -4
-225 18 -188 28 -206 32 -155 36 19 1 46 3 61 4 25 2 79 32 79 44 0 9 -120 30
-216 38 -68 5 -73 4 -84 -17 -11 -20 -9 -26 11 -42 l24 -20 -25 6 c-14 2 -79
12 -145 21 -66 9 -147 20 -180 26 -33 5 -111 14 -172 21 -62 6 -113 15 -113
19 0 5 19 19 43 33 42 25 47 25 192 21 188 -5 287 -14 299 -26 6 -5 29 -9 51
-9 49 0 241 -25 305 -39 81 -18 228 -25 244 -12 10 8 21 9 33 3 24 -13 86 -32
102 -32 7 0 31 9 54 19 68 31 94 35 112 17 9 -8 23 -12 33 -9 24 9 58 33 47
33 -6 0 -9 33 -7 80 3 68 1 80 -12 80 -9 0 -16 -7 -16 -15 0 -8 5 -15 10 -15
11 0 13 -37 4 -92 -5 -31 -11 -38 -30 -38 -21 0 -22 3 -17 55 3 30 2 55 -2 55
-11 0 -68 -18 -133 -43 -29 -11 -56 -17 -59 -13 -4 4 2 26 14 49 11 23 26 58
32 77 6 19 22 67 35 105 14 39 36 106 50 150 38 121 74 213 101 259 24 41 122
292 195 501 21 61 60 164 85 230 104 266 168 435 200 525 18 52 43 122 54 155
12 33 28 72 36 87 17 30 20 94 5 103 -22 13 2 22 75 29 41 4 92 13 112 20 21
7 67 14 103 15 36 1 79 6 95 11 17 5 98 16 180 25 83 9 165 18 183 22 l32 5 0
1814 0 1814 -2099 0 -2099 0 -7 -30z m3635 -96 c22 -9 26 -12 10 -9 -14 2 -33
5 -42 5 -10 0 -18 5 -18 10 0 13 7 12 50 -6z m-2081 -93 c132 -53 171 -79 283
-194 88 -90 258 -345 258 -387 0 -7 13 -42 30 -79 33 -76 66 -288 55 -350 -4
-20 -22 -83 -41 -141 -20 -58 -40 -143 -45 -190 -19 -158 -22 -172 -51 -193
-24 -18 -29 -18 -44 -6 -11 9 -41 14 -81 14 -44 0 -62 4 -59 12 3 8 -6 7 -30
-3 -35 -15 -46 -6 -19 16 16 13 21 40 8 40 -5 -1 -19 -7 -33 -15 -33 -19 -34
-19 -69 11 -17 14 -66 45 -110 68 -43 22 -100 60 -127 83 l-49 43 23 15 c12 9
22 22 22 30 0 7 10 26 23 42 13 15 26 35 29 43 7 18 107 51 135 44 14 -4 23 2
31 21 17 36 15 84 -3 91 -8 4 -15 15 -15 25 0 10 -13 34 -30 52 -16 19 -30 39
-30 45 0 6 -10 28 -22 49 -13 21 -27 51 -33 68 -13 38 -28 35 -36 -7 l-6 -33
-14 30 c-37 79 -105 175 -123 175 -2 0 -6 -26 -9 -57 -7 -62 -22 -119 -36
-141 -13 -21 -65 10 -79 45 -6 15 -25 66 -42 113 -18 47 -41 102 -53 122 l-21
38 24 25 c28 30 21 42 -56 86 -61 34 -82 62 -64 84 9 11 7 16 -8 24 -17 9 -38
53 -34 72 0 3 -31 4 -69 2 -63 -3 -75 -7 -123 -42 -102 -75 -172 -178 -197
-286 -21 -95 -34 -129 -56 -155 -22 -27 -48 -110 -33 -110 36 0 69 15 74 34
l6 21 13 -23 c7 -12 30 -34 50 -48 20 -13 37 -29 37 -34 0 -5 9 -12 21 -15 22
-7 49 -60 49 -95 0 -13 -7 -20 -20 -20 -14 0 -28 17 -50 59 -49 98 -101 124
-175 86 -53 -26 -67 -26 -44 2 8 10 16 41 17 68 7 138 106 376 206 497 67 81
134 132 242 186 140 70 243 93 400 88 91 -3 111 -8 203 -45z m-2647 -393 c-9
-9 -15 -9 -24 0 -9 9 -7 12 12 12 19 0 21 -3 12 -12z m4658 -108 l0 -30 -70 0
c-72 0 -78 3 -57 31 14 19 37 26 90 28 35 1 37 -1 37 -29z m-530 -45 c0 -63
-1 -65 -25 -65 -14 0 -25 5 -25 10 0 6 -7 6 -19 -1 -26 -17 -51 -4 -51 25 0
28 35 43 48 20 5 -9 15 -12 25 -8 28 10 20 23 -22 34 -44 12 -70 35 -49 43 7
3 37 6 66 6 l52 1 0 -65z m-3174 -106 c10 -18 -13 -32 -40 -25 -32 8 -34 23
-3 29 12 2 25 5 29 6 4 0 10 -4 14 -10z m3154 0 c0 -9 73 -10 276 -7 l275 6
-2 -402 c-2 -378 -8 -476 -25 -418 -6 22 -6 22 -238 22 -127 0 -254 3 -282 6
-47 6 -51 5 -57 -17 -11 -40 -15 -17 -19 94 -2 71 -7 112 -15 119 -17 14 -18
158 -2 158 10 0 8 140 -4 289 -2 22 2 24 43 25 42 1 45 3 48 31 2 23 0 26 -7
15 -9 -13 -13 -12 -26 8 -21 29 -33 28 -45 -4 -14 -35 -30 -21 -30 26 0 27 6
42 18 49 24 14 92 14 92 0z m-3300 -19 c0 -5 -2 -10 -4 -10 -3 0 -8 5 -11 10
-3 6 -1 10 4 10 6 0 11 -4 11 -10z m-380 -10 c0 -5 -5 -10 -11 -10 -5 0 -7 5
-4 10 3 6 8 10 11 10 2 0 4 -4 4 -10z m696 -118 c2 -37 5 -85 8 -108 2 -22 1
-46 -3 -52 -11 -18 -34 161 -27 203 10 53 19 35 22 -43z m-171 -44 c40 -18 31
-38 -17 -39 -54 -1 -152 2 -155 5 -1 1 0 12 4 24 5 20 12 22 74 22 37 0 80 -5
94 -12z m601 -20 c-3 -7 -7 -26 -11 -42 -4 -18 -10 -25 -16 -19 -11 11 8 73
22 73 4 0 7 -6 5 -12z m191 -84 c-3 -3 -12 -4 -19 -1 -8 3 -5 6 6 6 11 1 17
-2 13 -5z m-212 -143 c6 -42 3 -57 -19 -98 -14 -26 -52 -105 -85 -175 -59
-127 -79 -156 -66 -98 8 38 -10 40 -50 6 -32 -27 -116 -75 -97 -55 22 24 14
35 -25 31 -32 -4 -36 -3 -26 10 7 8 37 26 66 41 49 24 157 125 157 147 0 15
-63 30 -128 30 -65 0 -66 0 -109 -46 -26 -28 -45 -60 -49 -81 -5 -25 -9 -31
-15 -21 -7 11 -11 10 -19 -2 -5 -8 -10 -25 -10 -37 0 -13 -5 -23 -11 -23 -7 0
-9 -9 -5 -24 5 -20 1 -27 -24 -37 -24 -11 -28 -18 -23 -38 4 -17 3 -22 -6 -16
-7 4 -18 -1 -26 -11 -20 -29 -29 -10 -11 25 22 41 6 46 -33 11 -18 -17 -35
-30 -39 -30 -4 0 -13 -9 -19 -20 -7 -11 -26 -26 -43 -35 -26 -13 -29 -13 -24
0 8 19 -5 19 -31 2 -71 -49 -79 -53 -72 -35 3 10 1 20 -5 24 -7 4 -8 3 -4 -4
12 -20 -12 -13 -41 12 -25 21 -26 25 -13 42 14 16 13 17 -12 11 -22 -6 -37 0
-74 28 -25 19 -52 35 -60 35 -8 0 -14 4 -14 9 0 19 18 21 46 6 49 -26 81 -17
52 14 -11 11 -9 12 10 6 13 -4 41 0 66 10 63 24 94 15 34 -10 -49 -20 -69 -53
-25 -41 12 3 56 13 97 22 41 8 93 24 115 35 22 10 45 19 52 19 16 0 158 121
196 169 20 24 49 45 77 55 43 15 50 15 130 -5 l85 -20 27 32 c27 33 78 146 78
175 0 34 19 1 25 -45z m260 -21 c-17 -17 -31 -26 -33 -20 -5 15 27 50 46 50
11 0 7 -9 -13 -30z m-2798 -92 c-3 -8 -6 -5 -6 6 -1 11 2 17 5 13 3 -3 4 -12
1 -19z m1303 -38 c0 -5 -4 -10 -10 -10 -5 0 -10 5 -10 10 0 6 5 10 10 10 6 0
10 -4 10 -10z m488 -16 c-9 -9 -21 -13 -27 -9 -16 10 -3 25 22 25 20 0 20 -1
5 -16z m-1828 -51 c0 -10 -4 -14 -8 -8 -4 6 -11 13 -16 18 -5 4 -2 7 7 7 10 0
17 -8 17 -17z m557 -120 c-18 -9 -24 -9 -30 3 -5 9 -6 22 -3 30 5 13 9 13 30
-3 l24 -18 -21 -12z m63 17 c0 -5 -7 -10 -15 -10 -8 0 -15 5 -15 10 0 6 7 10
15 10 8 0 15 -4 15 -10z m-625 -9 c3 -5 1 -12 -5 -16 -5 -3 -10 1 -10 9 0 18
6 21 15 7z m2132 -68 c-2 -16 -4 -5 -4 22 0 28 2 40 4 28 2 -13 2 -35 0 -50z
m-2137 -30 c0 -31 -3 -53 -7 -50 -10 11 -13 107 -2 107 5 0 9 -25 9 -57z
m2109 -7 c-9 -8 -10 -7 -5 7 3 10 7 26 7 35 1 9 4 6 6 -7 3 -13 -1 -28 -8 -35z
m-1479 -33 c0 -32 -2 -34 -27 -31 -22 2 -29 9 -31 32 -4 32 10 46 39 39 14 -4
19 -14 19 -40z m748 26 c34 -11 62 -23 62 -25 0 -2 -24 -16 -52 -30 -43 -21
-91 -53 -157 -101 -10 -7 23 -32 50 -38 29 -6 89 -50 89 -64 0 -4 -13 -15 -30
-24 -16 -10 -42 -31 -58 -47 l-29 -29 -21 23 c-22 27 -172 111 -214 121 -18 5
-28 14 -28 26 0 16 -7 19 -44 19 -23 0 -57 -5 -74 -11 -69 -24 -61 -2 8 25 41
16 78 34 81 39 4 5 19 10 33 10 15 0 29 3 31 8 8 13 127 0 139 -15 18 -23 52
-28 67 -10 18 22 85 64 102 64 7 0 22 6 32 14 18 13 17 14 -11 29 -17 9 -42
13 -59 10 -29 -5 -29 -5 -10 11 25 20 20 20 93 -5z m122 -3 c0 -2 -7 -7 -16
-10 -8 -3 -12 -2 -9 4 6 10 25 14 25 6z m1270 -20 c-13 -17 -79 -41 -87 -32
-3 3 7 10 23 17 16 6 36 15 44 19 24 14 34 11 20 -4z m1205 -25 c-3 -14 -8
-47 -12 -73 -6 -50 4 -61 27 -33 20 24 40 18 40 -13 0 -19 -16 -49 -45 -87
l-46 -58 3 -75 c2 -67 0 -76 -21 -93 -13 -11 -33 -18 -45 -18 -17 1 -17 2 -3
6 17 5 24 23 8 23 -5 0 -14 12 -20 28 -5 15 -18 39 -27 53 -17 26 -16 27 11
63 22 28 28 49 31 100 4 58 1 68 -22 95 -18 22 -21 31 -11 31 8 0 27 18 42 39
38 56 103 65 90 12z m-2403 -29 c17 -17 5 -24 -51 -33 -27 -4 -68 -17 -92 -28
-26 -13 -47 -17 -52 -12 -13 13 130 90 160 87 13 -2 29 -8 35 -14z m1153 -24
c16 -3 9 -9 -29 -28 -27 -14 -51 -30 -53 -37 -9 -24 -19 -13 -19 21 0 31 4 37
36 49 19 7 37 10 40 6 3 -4 14 -8 25 -11z m-2230 2 c-3 -5 -10 -10 -16 -10 -5
0 -9 5 -9 10 0 6 7 10 16 10 8 0 12 -4 9 -10z m143 3 c-10 -2 -28 -2 -40 0
-13 2 -5 4 17 4 22 1 32 -1 23 -4z m297 -3 c-3 -5 -10 -10 -16 -10 -5 0 -9 5
-9 10 0 6 7 10 16 10 8 0 12 -4 9 -10z m-505 -10 c0 -5 -15 -10 -34 -10 -19 0
-38 5 -41 10 -4 6 10 10 34 10 23 0 41 -4 41 -10z m353 3 c-7 -2 -19 -2 -25 0
-7 3 -2 5 12 5 14 0 19 -2 13 -5z m872 -23 c3 -5 1 -10 -4 -10 -6 0 -11 5 -11
10 0 6 2 10 4 10 3 0 8 -4 11 -10z m-1485 -10 c0 -5 -4 -10 -10 -10 -5 0 -10
5 -10 10 0 6 5 10 10 10 6 0 10 -4 10 -10z m-40 -4 c0 -2 -11 -6 -25 -8 -14
-3 -25 -1 -25 3 0 5 11 9 25 9 14 0 25 -2 25 -4z m657 -12 c-3 -3 -12 -4 -19
-1 -8 3 -5 6 6 6 11 1 17 -2 13 -5z m935 -19 c0 -5 -5 -11 -11 -13 -6 -2 -11
4 -11 13 0 9 5 15 11 13 6 -2 11 -8 11 -13z m-372 -5 c8 -5 11 -12 7 -16 -4
-4 -15 0 -24 9 -18 18 -8 23 17 7z m75 0 c3 -5 1 -10 -4 -10 -6 0 -11 5 -11
10 0 6 2 10 4 10 3 0 8 -4 11 -10z m1212 -18 c8 -5 9 -12 2 -22 -8 -13 -10
-13 -19 0 -18 27 -9 39 17 22z m947 -14 c25 -36 19 -52 -39 -107 -30 -29 -55
-54 -55 -57 0 -2 14 -4 30 -4 36 0 36 -3 8 -57 -20 -37 -21 -47 -12 -93 9 -44
8 -52 -5 -59 -31 -16 -89 -21 -117 -11 -20 8 -35 8 -56 -1 -21 -9 -31 -9 -42
0 -30 25 14 98 95 159 27 20 49 42 49 48 0 6 7 17 15 24 13 10 12 17 -6 52
-19 37 -19 41 -5 64 17 25 80 63 108 64 9 0 24 -10 32 -22z m-2837 -4 c-3 -3
-12 -4 -19 -1 -8 3 -5 6 6 6 11 1 17 -2 13 -5z m-557 -79 c0 -43 -25 -48 -33
-8 -6 32 -1 43 19 43 9 0 14 -11 14 -35z m3530 -20 c10 -12 10 -19 2 -27 -16
-16 -73 9 -65 28 7 19 47 18 63 -1z m-2830 -109 c-28 -26 -54 -61 -52 -70 1
-3 -26 -33 -60 -66 l-62 -60 35 0 c19 0 49 -9 66 -20 33 -20 63 -18 63 5 0 7
-18 25 -41 40 l-40 28 28 23 c16 14 42 23 62 24 25 0 32 4 27 15 -3 8 -1 15 4
15 6 0 10 -4 10 -10 0 -5 18 -14 40 -20 47 -13 49 -24 13 -62 -31 -33 -27 -43
12 -28 51 19 38 1 -16 -23 -30 -13 -60 -32 -68 -41 -13 -16 -12 -17 11 -11 15
4 29 2 32 -4 4 -6 31 -11 59 -11 52 0 88 -13 75 -26 -6 -5 27 -53 75 -109 13
-16 -16 48 -37 78 -22 32 -13 48 44 77 l36 18 31 -38 c18 -20 44 -63 60 -94
21 -44 32 -56 45 -52 10 4 26 8 36 11 30 10 99 -146 123 -280 6 -33 27 -107
46 -165 l36 -105 -12 -113 c-7 -62 -21 -140 -32 -172 -10 -32 -23 -100 -28
-150 -10 -88 -35 -158 -57 -153 -18 5 -15 56 10 162 34 140 34 183 1 205 -24
16 -25 20 -25 129 0 61 -5 130 -12 152 -6 22 -10 50 -9 63 1 12 -2 22 -7 22
-9 0 -23 -69 -24 -115 -1 -45 22 -307 28 -316 3 -6 0 -17 -7 -25 -9 -10 -12
-50 -12 -122 l1 -107 -7 93 c-6 87 -8 94 -38 122 -31 29 -52 85 -38 98 4 4 10
1 12 -5 7 -20 23 -15 23 6 0 19 -10 20 -77 12 -6 0 -13 -9 -15 -18 -2 -13 -13
-4 -38 32 -56 82 -93 125 -107 125 -17 0 -19 5 26 -91 21 -46 51 -123 67 -171
25 -78 31 -88 52 -88 30 0 62 -17 62 -34 0 -7 9 -21 20 -31 21 -19 26 -60 11
-84 -12 -19 -31 -4 -74 58 -16 25 -64 83 -105 129 -55 61 -80 82 -94 79 -13
-4 -26 8 -50 45 -18 27 -34 45 -36 40 -6 -20 41 -97 95 -157 30 -33 71 -91 90
-130 20 -38 53 -95 73 -125 21 -30 41 -71 45 -90 4 -19 23 -59 43 -88 19 -28
32 -55 28 -59 -4 -5 -14 1 -22 12 -14 19 -16 19 -28 3 -7 -10 -21 -18 -30 -18
-21 0 -20 -12 4 -60 24 -48 24 -48 3 -53 -15 -3 -13 -6 10 -17 31 -15 35 -30
9 -36 -15 -5 -17 -14 -11 -87 4 -45 5 -92 2 -105 -3 -12 0 -28 6 -36 8 -10 8
-33 1 -85 -10 -68 -47 -221 -56 -230 -13 -14 -11 13 6 70 11 35 20 78 20 94
l-1 30 -20 -25 c-96 -115 -105 -119 -149 -49 -13 21 -28 39 -32 39 -17 0 -7
-35 18 -61 26 -27 26 -28 4 -22 -22 6 -22 6 -5 -28 10 -19 31 -53 46 -76 16
-23 29 -44 29 -47 0 -17 -28 0 -78 48 -86 81 -127 95 -156 55 -12 -17 -21 -20
-45 -16 -75 15 -274 139 -286 178 -4 10 -14 20 -23 23 -32 10 -169 151 -192
196 -12 25 -38 64 -57 88 -26 32 -33 46 -24 55 6 6 11 36 12 66 0 47 2 53 12
37 50 -77 73 -108 122 -160 30 -33 55 -63 55 -68 0 -4 -9 -13 -20 -20 -26 -17
-25 -34 1 -41 12 -3 18 -3 15 0 -5 6 18 33 28 33 4 0 4 -11 0 -24 -3 -15 1
-29 11 -40 22 -22 7 -21 -18 1 -18 17 -19 17 -16 -2 5 -24 61 -67 70 -53 4 6
25 -3 49 -21 45 -32 72 -37 113 -22 20 8 29 6 43 -10 14 -16 15 -23 5 -45 -6
-14 -9 -30 -6 -35 8 -12 85 -12 85 1 0 6 -3 10 -8 10 -4 0 -16 24 -26 52 -31
87 -105 216 -185 321 -119 156 -166 236 -147 254 3 3 35 -22 71 -56 36 -33 71
-61 78 -61 7 1 23 7 37 15 41 24 67 19 84 -17 16 -30 15 -33 -9 -58 -14 -14
-25 -30 -25 -34 0 -10 129 -159 142 -164 5 -2 29 13 53 33 70 57 64 78 -78
280 -8 11 -40 59 -71 107 -31 48 -61 90 -66 93 -6 4 -10 14 -10 24 0 10 -45
65 -101 122 -94 97 -137 154 -125 166 5 6 70 -37 181 -121 44 -33 118 -80 165
-104 47 -24 98 -53 114 -65 l29 -20 18 21 c10 13 20 19 22 14 3 -4 44 -27 91
-52 47 -24 98 -55 113 -70 16 -14 43 -37 62 -50 l33 -23 -7 24 c-35 113 -79
164 -215 253 -95 63 -120 69 -120 31 0 -14 -4 -25 -9 -25 -13 0 -38 26 -46 48
-3 9 -40 44 -81 77 -131 105 -210 216 -254 356 -17 55 -17 64 -3 96 l14 36 40
-39 c32 -31 36 -40 24 -47 -17 -9 -45 -59 -45 -80 0 -8 22 -39 49 -70 27 -31
59 -73 71 -94 21 -36 108 -113 128 -113 5 0 12 10 15 21 6 21 7 20 44 -11 21
-17 58 -48 83 -68 25 -20 62 -52 82 -71 21 -19 40 -33 42 -30 3 3 -10 33 -28
68 -35 68 -180 223 -200 215 -28 -11 -150 168 -171 250 -8 33 -21 66 -28 75
-21 24 -67 112 -67 127 0 7 7 17 16 22 12 7 15 17 9 42 -6 29 -10 32 -37 28
-57 -9 -85 65 -42 113 8 8 14 23 14 31 0 23 33 78 47 78 25 0 111 -43 163 -83
96 -71 248 -218 285 -273 35 -52 60 -74 86 -74 6 0 9 8 6 19 -3 15 4 22 34 34
42 16 53 12 83 -33 10 -15 16 -19 16 -9 0 16 -23 52 -58 89 -21 23 -24 24 -36
8 -7 -10 -23 -18 -34 -18 -12 0 -25 -7 -30 -16 -10 -18 -12 -14 -143 181 -43
64 -125 155 -138 155 -4 0 -15 -7 -26 -16 -19 -14 -18 -16 28 -55 26 -22 47
-45 47 -51 0 -6 -21 11 -47 36 -56 55 -219 140 -305 160 -47 11 -59 11 -70 -1
-17 -16 -163 -28 -153 -12 4 6 15 13 25 17 29 11 221 193 215 203 -4 5 0 6 8
3 16 -6 157 109 157 127 0 19 93 69 129 69 l36 0 -25 -24z m65 -26 c-10 -11
-20 -18 -23 -15 -7 6 18 35 31 35 5 0 2 -9 -8 -20z m2895 -85 c16 -34 20 -57
17 -92 -7 -65 -14 -79 -48 -93 -16 -7 -29 -19 -29 -27 0 -7 -7 -16 -15 -19
-18 -7 -20 -35 -3 -52 9 -9 8 -15 -7 -25 -13 -10 -15 -16 -6 -21 7 -5 9 -20 5
-41 -4 -21 0 -43 11 -65 13 -24 14 -35 5 -46 -7 -8 -9 -21 -5 -31 5 -10 9 -29
11 -43 1 -14 3 -32 5 -40 2 -8 -2 -14 -8 -12 -7 1 -13 -4 -13 -12 0 -8 -7 -16
-15 -20 -35 -13 -20 -30 166 -191 17 -15 29 -41 38 -81 7 -32 23 -70 36 -84
44 -48 135 -220 135 -254 0 -19 17 -65 38 -107 22 -41 37 -79 35 -85 -2 -7 11
-14 31 -18 33 -6 35 -9 41 -59 3 -29 7 -65 8 -81 2 -22 11 -33 45 -51 23 -12
90 -72 148 -134 89 -94 110 -110 129 -105 26 6 50 -22 71 -82 l11 -32 -49 -4
c-33 -4 -57 -13 -71 -27 l-22 -22 58 7 c53 6 60 5 85 -18 30 -28 77 -43 87
-28 11 17 37 11 42 -10 6 -22 29 -27 35 -8 3 9 21 8 74 -3 58 -13 71 -19 82
-42 7 -15 20 -27 29 -27 17 0 127 -80 151 -109 26 -32 4 -94 -25 -69 -7 6 -16
8 -20 4 -4 -3 2 -13 13 -21 13 -10 15 -14 5 -15 -8 0 -12 -3 -9 -6 7 -6 -46
-159 -60 -177 -6 -7 -16 -39 -23 -72 -19 -90 -23 -96 -61 -83 -18 5 -41 12
-50 15 -12 4 -18 0 -18 -11 0 -9 -6 -25 -12 -36 -11 -17 -8 -29 21 -84 34 -62
34 -64 20 -102 -13 -34 -19 -39 -44 -37 -49 4 -80 34 -83 82 -2 23 2 48 8 55
8 10 4 18 -15 30 -14 9 -25 23 -25 31 0 20 -73 20 -90 0 -9 -11 -17 -12 -30
-5 -10 6 -28 10 -39 10 -18 0 -21 6 -21 45 0 65 34 93 107 86 26 -2 63 15 63
29 0 6 -8 10 -19 10 -10 0 -30 11 -45 25 -20 18 -34 23 -52 19 -18 -5 -24 -2
-24 9 0 26 -16 29 -77 13 -67 -18 -84 -9 -59 29 23 35 10 47 -14 15 -10 -14
-22 -21 -26 -17 -4 4 1 16 11 27 10 11 15 23 11 28 -4 4 -16 -3 -26 -15 -10
-13 -23 -23 -29 -23 -7 0 -14 -6 -17 -14 -4 -10 -18 -12 -49 -8 -32 3 -52 0
-71 -13 -14 -9 -24 -13 -22 -8 22 45 61 121 68 133 4 8 14 30 20 47 7 18 31
53 54 77 23 25 40 50 38 56 -9 25 10 57 48 80 22 13 40 28 40 32 0 16 -16 8
-64 -32 -66 -55 -93 -53 -39 3 46 48 70 87 53 87 -28 0 -72 -34 -95 -74 -34
-58 -50 -71 -119 -92 -47 -15 -64 -26 -79 -51 -21 -37 -56 -44 -78 -17 -12 15
-10 20 20 43 19 14 59 48 90 74 79 68 78 67 100 67 17 0 31 18 31 40 0 4 -20
15 -45 24 -46 15 -46 15 -55 -9 -9 -23 -14 -24 -102 -27 -68 -2 -92 -6 -90
-15 6 -33 -51 -3 -72 37 -7 14 -17 24 -22 23 -5 -1 -26 -4 -46 -8 -36 -7 -38
-6 -38 18 0 35 12 40 59 23 23 -7 41 -11 41 -7 -1 14 -39 51 -54 51 -27 0 -18
27 22 58 l37 30 -24 26 c-29 31 -59 33 -112 6 -31 -16 -39 -25 -34 -40 7 -22
-8 -34 -33 -25 -14 4 -19 16 -20 48 -3 71 6 96 46 116 21 11 61 44 90 74 50
51 53 56 47 91 -4 20 -11 36 -15 36 -13 0 -32 -29 -26 -39 4 -5 -8 -26 -25
-46 l-32 -36 -16 25 c-9 14 -21 26 -27 26 -14 0 -44 44 -44 65 0 8 -4 15 -10
15 -6 0 -10 28 -10 64 0 61 -2 65 -36 95 -19 17 -39 29 -44 26 -10 -6 -3 -32
12 -52 9 -11 38 -107 38 -125 0 -5 -7 -8 -15 -8 -8 0 -15 7 -15 15 0 9 -9 15
-24 15 -51 0 -52 2 -48 133 2 67 0 146 -6 175 -5 29 -6 55 -2 57 10 6 23 65
20 90 -1 11 -11 40 -22 63 -11 24 -20 57 -20 73 -1 16 -2 29 -3 29 -9 0 -76
-72 -71 -77 3 -3 1 -12 -5 -20 -9 -10 -4 -16 21 -27 l32 -13 -27 -5 c-16 -4
-28 -1 -32 7 -2 7 -15 16 -29 19 -18 5 -24 13 -24 35 0 32 -22 56 -45 47 -10
-3 -15 -19 -15 -46 0 -32 -4 -40 -18 -40 -10 0 -23 -5 -30 -12 -22 -22 -12 4
13 34 14 16 25 42 25 58 0 19 6 29 20 33 25 6 27 36 3 38 -10 1 -25 2 -33 3
-8 1 -20 5 -27 9 -12 8 -53 -12 -53 -25 0 -5 -5 -8 -11 -8 -8 0 -8 4 0 14 6 7
9 20 5 29 -3 8 0 18 5 22 6 3 9 11 5 16 -4 6 -14 3 -26 -8 -19 -17 -20 -17
-37 6 -15 20 -21 22 -39 12 -29 -15 -32 -14 -32 10 0 12 -7 27 -16 33 -14 11
-13 16 11 45 l28 32 -37 38 c-37 38 -47 71 -21 71 8 0 15 7 15 15 0 19 -21 19
-65 1 -34 -15 -46 -13 -41 7 2 7 1 9 -1 5 -6 -11 -23 -10 -23 1 0 5 9 12 20
16 24 8 64 71 56 90 -3 8 -15 14 -28 12 -18 -1 -24 4 -26 25 -3 22 4 32 33 50
27 18 34 28 30 44 -4 17 2 24 28 34 17 7 41 16 52 20 11 5 30 12 42 15 15 4
22 13 20 27 -1 11 4 23 11 25 8 3 11 -4 10 -19 -2 -15 2 -22 10 -20 8 1 16 -7
19 -18 3 -12 14 -20 25 -20 17 0 18 -3 8 -15 -10 -12 -10 -15 4 -15 9 0 16 -7
16 -16 0 -8 6 -22 14 -30 12 -12 24 -8 82 26 75 44 97 47 151 25 34 -15 36
-14 59 10 13 14 32 25 44 25 11 0 20 6 20 13 0 8 11 27 25 43 14 16 25 41 25
57 0 31 -2 32 -30 15 -29 -18 -32 -6 -10 37 11 22 20 44 20 50 0 5 9 16 20 23
11 7 20 19 20 27 0 31 29 13 50 -30z m-3660 15 c0 -6 -28 -10 -64 -10 -36 0
-68 5 -71 10 -4 6 20 10 64 10 41 0 71 -4 71 -10z m180 -65 c-7 -9 -15 -13
-17 -11 -7 7 7 26 19 26 6 0 6 -6 -2 -15z m-13 -57 c-3 -8 -6 -5 -6 6 -1 11 2
17 5 13 3 -3 4 -12 1 -19z m1003 -58 c0 -5 -2 -10 -4 -10 -3 0 -8 5 -11 10 -3
6 -1 10 4 10 6 0 11 -4 11 -10z m-1350 -150 c0 -5 -4 -10 -10 -10 -5 0 -10 5
-10 10 0 6 5 10 10 10 6 0 10 -4 10 -10z m1609 -26 c26 -33 26 -44 2 -44 -11
0 -22 -4 -25 -8 -9 -15 15 -86 35 -105 20 -19 22 -29 19 -87 -3 -59 -16 -54
-33 12 -8 35 -21 83 -27 108 -34 129 -20 186 29 124z m-1459 -88 c0 -3 -4 -8
-10 -11 -5 -3 -10 -1 -10 4 0 6 5 11 10 11 6 0 10 -2 10 -4z m5047 -73 c-3
-10 -5 -2 -5 17 0 19 2 27 5 18 2 -10 2 -26 0 -35z m-3642 -13 c3 -5 1 -10 -4
-10 -6 0 -11 5 -11 10 0 6 2 10 4 10 3 0 8 -4 11 -10z m185 -69 c0 -6 -4 -13
-10 -16 -5 -3 -10 -16 -10 -28 0 -20 0 -20 -14 -1 -10 12 -11 21 -4 25 6 4 7
12 4 18 -5 7 1 11 13 11 12 0 21 -4 21 -9z m1215 -50 c3 -5 -3 -31 -14 -58
-10 -26 -22 -86 -26 -133 l-7 -85 36 -34 c20 -19 36 -42 36 -50 0 -8 -11 -34
-25 -57 -14 -24 -30 -65 -35 -93 -5 -27 -23 -72 -40 -99 -16 -27 -30 -55 -30
-62 0 -20 -53 -106 -57 -93 -3 7 1 21 7 32 6 13 7 21 1 21 -5 0 -22 -23 -37
-50 -26 -48 -28 -49 -46 -33 -10 9 -16 24 -13 34 3 9 2 20 -3 23 -12 7 -3 128
11 145 10 12 9 12 -10 1 -40 -25 -53 -76 -30 -120 7 -14 14 -38 15 -54 2 -32
18 -56 37 -56 15 0 27 -38 14 -46 -5 -3 -9 -14 -9 -25 0 -32 -19 -21 -26 16
-13 71 -97 155 -154 155 -31 0 -73 27 -64 42 4 6 22 8 40 5 34 -6 34 -6 34 35
0 36 6 47 69 109 76 76 122 149 95 149 -9 0 -13 5 -10 13 3 6 9 20 12 29 3 10
14 20 23 23 9 3 54 77 100 165 47 88 88 160 92 160 4 0 10 -4 14 -9z m178 -31
c-5 -19 -23 -29 -23 -12 0 7 20 32 26 32 1 0 0 -9 -3 -20z m-2438 -191 c11
-17 -1 -21 -15 -4 -8 9 -8 15 -2 15 6 0 14 -5 17 -11z m1085 -10 c0 -6 -4 -7
-10 -4 -5 3 -10 11 -10 16 0 6 5 7 10 4 6 -3 10 -11 10 -16z m-120 -103 c0 -3
-4 -8 -10 -11 -5 -3 -10 -1 -10 4 0 6 5 11 10 11 6 0 10 -2 10 -4z m180 -52
c0 -8 -4 -14 -10 -14 -5 0 -10 9 -10 21 0 11 5 17 10 14 6 -3 10 -13 10 -21z
m1556 -14 c0 -22 -11 -27 -20 -7 -4 6 -4 2 -2 -11 3 -15 0 -20 -7 -15 -9 5 -9
3 -2 -8 6 -8 11 -41 10 -74 -1 -45 -6 -67 -23 -90 -18 -25 -22 -41 -19 -88 4
-67 -4 -74 -20 -14 -6 23 -14 53 -18 67 -5 19 -4 22 4 10 15 -21 15 40 0 91
-11 36 -10 40 20 75 18 20 37 47 43 60 14 29 34 31 34 4z m2104 -40 c0 -5 -4
-10 -10 -10 -5 0 -10 5 -10 10 0 6 5 10 10 10 6 0 10 -4 10 -10z m-3720 -30
c0 -5 -5 -10 -11 -10 -5 0 -7 5 -4 10 3 6 8 10 11 10 2 0 4 -4 4 -10z m108
-135 c76 -10 75 -10 68 -62 -3 -25 -6 -61 -6 -80 l0 -34 -52 3 -53 3 -1 65 c0
36 -3 83 -7 105 -3 22 -3 32 -1 23 4 -12 20 -19 52 -23z m1541 4 c-16 -10 -23
-4 -14 10 3 6 11 8 17 5 6 -4 5 -9 -3 -15z m-39 -14 c0 -8 -2 -15 -4 -15 -2 0
-6 7 -10 15 -3 8 -1 15 4 15 6 0 10 -7 10 -15z m-199 -100 c-17 -39 -18 -47
-6 -52 12 -4 15 -27 15 -107 0 -57 -3 -106 -7 -109 -10 -10 -3 -150 8 -164 6
-6 17 -9 25 -6 20 7 19 -88 -1 -127 -14 -27 -14 -33 -1 -58 33 -64 32 -306 -1
-319 -8 -3 -18 -1 -22 6 -6 8 -15 9 -34 2 -20 -8 -27 -7 -27 2 0 9 -2 9 -8 0
-4 -7 -38 -15 -75 -18 -55 -4 -67 -2 -67 10 0 18 -1 18 -34 5 -22 -8 -26 -7
-26 10 0 10 12 31 26 45 40 40 17 54 -32 21 -21 -14 -44 -26 -51 -26 -18 0
-33 -34 -33 -77 l0 -38 -45 3 c-28 3 -52 -1 -62 -9 -15 -13 -16 -11 -9 11 4
14 11 86 16 160 5 74 12 153 16 175 8 50 51 165 70 186 8 8 14 20 14 26 0 6
23 45 50 87 36 55 50 86 50 112 0 33 -18 83 -41 114 -8 12 -6 24 12 54 l22 38
24 -45 c40 -79 63 -72 63 20 0 28 4 54 9 58 5 3 21 -6 35 -20 44 -44 67 -31
113 63 22 44 29 52 31 35 2 -12 -6 -43 -17 -68z m174 65 c3 -5 1 -10 -4 -10
-6 0 -11 5 -11 10 0 6 2 10 4 10 3 0 8 -4 11 -10z m-8 -52 c-3 -8 -6 -5 -6 6
-1 11 2 17 5 13 3 -3 4 -12 1 -19z m90 -45 c-3 -10 -5 -4 -5 12 0 17 2 24 5
18 2 -7 2 -21 0 -30z m-99 -73 l0 -25 -8 25 c-4 14 -8 34 -8 45 l-1 20 9 -20
c5 -11 8 -31 8 -45z m-863 -57 c21 -25 24 -26 30 -10 13 32 43 18 90 -43 25
-33 52 -60 59 -60 18 0 73 -62 79 -90 3 -14 9 -36 13 -50 6 -21 5 -23 -7 -13
-9 7 -29 10 -50 7 -33 -6 -35 -4 -91 78 -31 46 -75 103 -98 128 -42 45 -66 80
-55 80 3 0 17 -12 30 -27z m1819 1 c3 -8 2 -12 -4 -9 -6 3 -10 10 -10 16 0 14
7 11 14 -7z m20 -39 c3 -8 1 -15 -4 -15 -6 0 -10 7 -10 15 0 8 2 15 4 15 2 0
6 -7 10 -15z m-957 -27 c-3 -7 -5 -2 -5 12 0 14 2 19 5 13 2 -7 2 -19 0 -25z
m369 -15 l-15 -28 -1 32 c0 17 6 33 13 36 19 6 20 -9 3 -40z m-1241 -133 c47
-39 99 -88 116 -110 22 -28 40 -40 63 -42 49 -5 69 -53 61 -148 -4 -41 -14
-96 -22 -122 -8 -26 -12 -59 -9 -72 10 -41 -22 -90 -88 -138 -96 -70 -155 -91
-231 -83 -55 6 -67 4 -101 -17 l-38 -25 -44 30 c-41 28 -44 28 -57 11 -20 -27
-18 -8 5 59 27 77 36 143 21 161 -23 27 -10 79 28 113 l36 31 -28 30 c-27 28
-29 36 -34 141 -4 77 -3 111 5 111 6 0 14 -4 17 -10 3 -5 14 -10 23 -10 19 0
72 48 72 66 0 7 21 22 46 34 25 12 51 31 57 41 7 11 13 19 15 19 2 0 41 -32
87 -70z m-487 -65 c-1 -14 -6 -25 -10 -25 -4 0 -8 11 -8 25 0 14 4 25 10 25 5
0 9 -11 8 -25z m1505 6 c22 -1 33 -29 42 -110 l7 -64 -38 6 c-27 5 -43 2 -55
-9 -15 -13 -17 -9 -28 47 -7 34 -20 73 -28 86 -14 22 -14 25 2 37 9 7 31 11
49 10 17 -1 39 -3 49 -3z m-1515 -84 c3 -12 -4 -17 -22 -17 -28 0 -33 9 -14
28 15 15 32 10 36 -11z m-58 -3 c0 -2 -12 -4 -26 -4 -14 0 -23 4 -20 9 6 8 46
4 46 -5z m-42 -74 c38 1 62 -3 62 -9 0 -6 -6 -11 -12 -11 -9 0 -8 -3 2 -10 12
-8 12 -10 -2 -15 -15 -6 -148 9 -190 21 -13 4 -18 -1 -19 -18 l-2 -23 -4 23
c-5 24 -28 30 -36 10 -3 -8 -6 -6 -6 5 -1 12 7 17 23 17 14 0 28 5 32 11 4 7
22 8 48 5 22 -4 69 -6 104 -6z m1682 -75 c0 -15 -37 -35 -63 -35 -13 0 42 49
56 50 4 0 7 -7 7 -15z m-1440 -76 c0 -6 -4 -7 -10 -4 -5 3 -10 11 -10 16 0 6
5 7 10 4 6 -3 10 -11 10 -16z m-322 -11 c7 -7 12 -17 12 -22 0 -8 -3 -7 -8 0
-4 6 -16 16 -27 22 -15 8 -16 11 -4 12 8 0 20 -5 27 -12z m55 -29 c-9 -9 -12
-7 -10 9 1 14 5 18 11 12 7 -7 6 -14 -1 -21z m2250 14 c-7 -2 -19 -2 -25 0 -7
3 -2 5 12 5 14 0 19 -2 13 -5z m-2397 -111 c18 -19 24 -20 31 -9 12 20 164 2
156 -19 -4 -10 -26 -14 -87 -13 -95 1 -107 4 -137 42 -18 24 -20 31 -8 38 9 5
15 4 18 -4 2 -7 14 -22 27 -35z m229 -33 c11 -17 -1 -21 -15 -4 -8 9 -8 15 -2
15 6 0 14 -5 17 -11z m1552 -21 c-3 -7 -5 -2 -5 12 0 14 2 19 5 13 2 -7 2 -19
0 -25z m150 6 c12 -11 13 -18 4 -27 -8 -8 -11 -7 -11 6 0 9 -8 21 -17 26 -12
7 -13 11 -5 11 7 0 20 -7 29 -16z m710 -10 c6 -18 -43 -25 -74 -12 l-27 13 34
6 c46 8 62 7 67 -7z m-3746 -51 c31 -11 48 -22 44 -30 -3 -9 6 -13 28 -13 35
-1 63 -11 183 -64 44 -20 112 -44 149 -53 38 -9 77 -25 87 -35 10 -10 27 -18
38 -18 26 0 65 -20 150 -74 36 -23 79 -51 95 -61 43 -27 9 -32 -42 -6 -41 20
-129 45 -199 55 -53 7 -133 -19 -203 -68 -42 -28 -56 -33 -75 -26 -13 5 -26 7
-28 4 -3 -2 -26 18 -52 46 -26 27 -52 50 -58 50 -7 0 -24 15 -38 32 -24 28
-30 31 -44 19 -19 -16 -21 -31 -3 -31 8 0 24 -11 37 -25 13 -14 28 -25 34 -25
19 0 76 -64 76 -85 0 -13 -27 -49 -68 -91 -37 -38 -75 -80 -84 -94 -9 -14 -19
-22 -24 -18 -4 5 0 16 9 26 25 28 21 43 -10 40 -25 -3 -28 0 -25 23 3 31 -60
109 -89 109 -16 0 -18 5 -13 25 8 33 -2 31 -39 -7 -25 -27 -32 -30 -35 -16 -5
25 -28 29 -48 7 -19 -22 -44 -25 -44 -6 0 6 -16 28 -36 46 l-35 35 23 18 c13
10 28 18 34 18 16 0 54 -39 54 -55 0 -25 15 -17 46 25 16 22 32 40 37 40 13 0
7 16 -15 39 l-21 24 24 18 c75 57 199 103 199 73 0 -22 20 -27 40 -9 15 13 28
15 60 10 l42 -7 -17 26 c-21 32 -63 41 -180 40 -69 -1 -105 -7 -157 -26 -72
-27 -92 -23 -33 5 38 18 47 47 15 47 -61 0 30 44 110 53 19 2 39 5 44 5 4 1
30 -6 57 -15z m-286 -115 c19 -5 19 -5 2 -13 -14 -6 -26 0 -45 20 l-27 28 25
-15 c14 -9 35 -18 45 -20z m2220 -78 c-4 -13 -2 -20 6 -20 17 0 99 -80 99 -97
0 -15 -22 -17 -36 -3 -13 13 -152 14 -184 2 -14 -5 -62 -13 -105 -16 -74 -6
-78 -6 -55 8 14 9 33 15 43 16 28 0 176 78 199 105 26 30 42 32 33 5z m235 -5
c0 -17 11 -19 26 -6 11 11 274 21 274 11 0 -4 -44 -25 -97 -45 -54 -20 -140
-54 -191 -76 -51 -21 -98 -39 -103 -39 -5 0 -9 9 -9 19 0 11 -4 23 -10 26 -17
11 -43 76 -34 85 9 9 106 38 132 39 6 1 12 -6 12 -14z m631 -102 c-8 -15 -10
-15 -11 -2 0 17 10 32 18 25 2 -3 -1 -13 -7 -23z m334 6 c22 -12 54 -34 72
-49 17 -15 57 -37 88 -49 82 -31 115 -50 115 -66 0 -8 10 -19 23 -26 27 -14
86 -77 97 -105 18 -44 82 -135 110 -156 37 -27 37 -32 4 -65 -30 -30 -25 -53
13 -54 15 0 80 -4 143 -8 99 -8 123 -6 175 10 32 10 61 17 62 15 8 -8 -30 -26
-127 -60 -87 -31 -189 -77 -210 -94 -3 -3 0 -7 7 -9 7 -2 9 -12 6 -21 -4 -10
4 -6 19 10 35 36 155 68 164 43 4 -9 -126 -65 -151 -65 -5 -1 -19 -8 -30 -16
-18 -15 -13 -15 69 -9 63 5 86 4 82 -4 -4 -6 -18 -11 -31 -11 -13 0 -53 -14
-90 -30 -48 -21 -82 -30 -121 -30 -30 0 -54 -4 -54 -10 0 -5 -13 -10 -29 -10
-16 0 -48 -7 -71 -15 -23 -8 -48 -15 -54 -15 -14 1 122 65 191 91 56 21 62 42
17 53 -14 4 -29 17 -35 29 -6 12 -18 38 -28 57 -10 19 -16 40 -14 47 3 8 -7
26 -22 41 -15 15 -32 39 -37 54 -9 26 -43 46 -56 34 -14 -15 -11 -50 8 -76 11
-16 25 -51 30 -79 5 -29 14 -59 19 -69 5 -9 11 -30 12 -47 4 -27 1 -30 -20
-27 -35 4 -61 30 -61 61 0 15 -9 44 -20 66 -14 27 -17 42 -9 51 7 8 7 19 0 31
-5 10 -12 26 -15 36 -3 9 -15 17 -27 17 -12 0 -61 24 -108 54 -47 29 -91 56
-97 59 -6 4 -44 11 -84 18 -40 6 -97 19 -128 30 -68 24 -106 25 -98 4 6 -18
-10 -19 -82 -5 -28 5 -70 21 -92 35 -35 22 -39 28 -30 46 6 11 15 17 20 14 4
-3 32 0 61 6 l52 11 -24 19 c-20 16 -22 20 -9 29 11 7 6 10 -22 10 -27 0 -38
-4 -38 -15 0 -15 -238 -137 -295 -151 -17 -4 -48 -19 -70 -34 -22 -15 -49 -30
-60 -34 -32 -10 -75 -53 -78 -77 -3 -16 -15 -27 -42 -36 -51 -18 -85 -50 -85
-82 l-1 -26 -22 26 c-38 46 -81 58 -255 74 -24 2 -49 9 -57 15 -19 16 -270 25
-380 13 -22 -2 -59 -5 -83 -6 -25 -2 -47 -9 -52 -17 -8 -12 -10 -10 -10 9 l0
23 -35 -26 c-33 -26 -35 -26 -35 -7 0 26 -37 28 -80 6 -25 -13 -29 -13 -34 0
-3 8 -15 15 -26 15 -11 0 -20 6 -20 14 0 8 -17 15 -47 19 -73 10 -80 12 -98
27 -12 10 -15 23 -9 54 l6 41 -20 -25 c-22 -28 -45 -30 -144 -16 -45 7 -58 12
-58 26 0 12 -8 17 -27 17 -54 -1 -166 13 -177 22 -6 4 -32 8 -57 8 -34 0 -51
5 -68 22 -12 12 -27 19 -32 15 -6 -4 -15 -1 -19 7 -7 10 -14 10 -33 2 -53 -24
-40 39 22 110 18 20 69 52 129 81 87 41 112 49 193 56 101 10 135 5 223 -34
28 -12 81 -30 119 -40 37 -10 67 -22 67 -27 0 -10 55 -25 125 -34 87 -11 93
-15 49 -36 l-39 -18 47 5 c41 5 141 -10 222 -33 32 -9 -5 -34 -55 -38 -58 -3
-59 -4 -59 -15 0 -18 69 -23 95 -6 13 9 26 12 29 8 7 -11 321 1 383 16 26 6
45 6 51 0 14 -14 68 -6 65 10 -2 7 7 12 22 12 14 0 25 -4 25 -10 0 -15 39 -12
56 4 11 12 41 14 151 10 76 -3 151 -5 167 -5 15 0 35 -6 43 -14 8 -8 20 -15
26 -15 7 0 73 25 147 56 241 99 322 126 362 121 45 -6 80 22 58 48 -18 21 -29
19 -127 -20 -48 -19 -94 -35 -102 -34 -9 0 -5 5 9 10 13 6 39 21 56 34 17 13
34 21 38 18 3 -4 6 -1 6 5 0 7 9 12 20 12 10 0 43 9 72 19 69 25 153 34 138
16 -9 -11 1 -21 42 -48 29 -18 59 -41 67 -51 19 -22 60 -43 130 -67 l56 -18
-29 22 c-17 12 -48 38 -70 58 -23 20 -67 57 -99 83 -56 44 -57 47 -35 55 31
13 29 14 73 -10z m-1171 -169 c14 -25 26 -48 26 -51 0 -3 -21 -7 -46 -7 -25
-1 -63 -6 -85 -11 -53 -12 -59 3 -6 19 60 18 60 18 85 9 28 -11 28 -2 0 22
-25 22 -19 22 -90 5 -32 -7 -62 -9 -70 -5 -12 8 -5 13 14 10 11 -1 2 30 -11
38 -7 5 19 20 66 38 l78 31 6 -27 c4 -14 18 -46 33 -71z m272 65 c10 -24 -38
-100 -64 -101 -12 -1 -22 3 -22 7 0 17 -20 9 -21 -8 0 -11 -3 -13 -6 -5 -5 14
-30 16 -35 4 -1 -5 -22 -12 -45 -16 l-43 -6 0 39 c0 22 3 42 8 45 4 2 27 -1
50 -7 42 -11 43 -11 80 26 39 39 88 50 98 22z m124 -29 c0 -3 -4 -8 -10 -11
-5 -3 -10 -1 -10 4 0 6 5 11 10 11 6 0 10 -2 10 -4z m229 -40 c-2 -2 -46 -23
-97 -45 -96 -42 -162 -57 -82 -18 25 12 47 24 50 27 3 3 28 13 55 22 49 16 82
22 74 14z m1036 -86 c3 -5 1 -10 -4 -10 -6 0 -11 5 -11 10 0 6 2 10 4 10 3 0
8 -4 11 -10z m-3530 -85 c-20 -40 -31 -44 -40 -14 -6 16 0 27 21 44 35 28 41
18 19 -30z m58 8 c-7 -2 -19 -2 -25 0 -7 3 -2 5 12 5 14 0 19 -2 13 -5z m2322
-55 c-11 -6 -22 -15 -25 -19 -11 -17 -154 -69 -184 -68 -27 1 -26 3 14 12 25
6 48 16 53 23 4 7 32 20 62 28 30 9 57 21 60 26 3 6 14 10 23 10 14 -1 14 -2
-3 -12z m320 -83 c0 -15 9 -21 35 -25 19 -4 46 -12 60 -20 34 -18 119 -40 159
-40 19 0 64 -10 100 -21 61 -20 69 -26 103 -78 30 -47 34 -57 20 -59 -9 -2
-27 -8 -40 -15 -30 -14 -58 2 -54 32 2 13 -3 23 -15 27 -57 19 -74 29 -79 48
-3 12 -17 29 -31 38 -23 14 -28 14 -53 0 -24 -14 -30 -14 -61 0 -19 9 -51 19
-72 22 -21 4 -58 16 -82 26 -25 11 -52 17 -60 13 -9 -3 -26 6 -41 22 -39 43
-5 67 76 55 26 -4 35 -10 35 -25z m-817 -193 c2 -7 -7 -12 -22 -12 -27 0 -35
15 -13 23 17 7 30 3 35 -11z m1065 -62 c40 -6 98 -15 129 -21 45 -9 64 -9 88
1 28 12 33 11 55 -10 30 -28 23 -40 -44 -68 -44 -19 -71 -21 -329 -24 -155 -2
-282 0 -282 3 0 4 28 18 63 33 34 14 100 41 147 60 98 41 82 39 173 26z m862
-20 c-3 -5 -10 -10 -16 -10 -5 0 -9 5 -9 10 0 6 7 10 16 10 8 0 12 -4 9 -10z
m106 -45 c-42 -19 -52 -19 -27 0 11 8 29 15 40 15 16 -1 12 -5 -13 -15z
m-1898 -16 c21 -6 46 -18 55 -27 32 -32 77 -60 110 -67 17 -3 32 -10 32 -13 0
-12 -105 -43 -108 -32 -4 12 -78 12 -107 0 -14 -5 -3 -7 32 -6 50 1 78 -15 37
-22 -10 -2 -23 -9 -29 -15 -18 -22 -116 -47 -137 -36 -19 10 -19 11 -1 24 10
7 29 16 42 20 16 5 20 10 12 18 -7 7 -14 7 -23 0 -7 -6 -29 -14 -48 -18 -19
-4 -39 -11 -45 -15 -5 -4 -46 -18 -89 -30 -60 -17 -89 -20 -120 -14 -23 5
-106 9 -186 10 -133 1 -211 8 -250 21 -11 3 -9 8 10 18 14 8 33 14 44 15 10 0
66 12 125 26 106 26 181 57 181 74 0 15 40 22 56 9 12 -10 20 -10 42 3 38 22
111 32 145 19 22 -9 33 -8 50 4 12 8 34 15 50 15 15 0 30 7 33 15 7 18 34 19
87 4z m2016 2 c9 -6 11 -18 8 -34 -6 -20 -11 -23 -33 -19 -18 3 -22 8 -15 15
20 20 11 30 -24 24 -21 -3 -48 -19 -66 -36 -17 -17 -38 -31 -48 -31 -9 0 -22
-5 -28 -11 -8 -8 -17 -6 -32 7 l-20 18 32 14 c123 54 197 71 226 53z m-170 -5
c-2 -2 -17 -6 -34 -10 -22 -5 -26 -4 -15 4 14 9 59 15 49 6z m-134 -51 c-27
-13 -62 -24 -77 -25 -15 0 -30 -5 -33 -10 -9 -15 -81 -50 -103 -50 -20 0 -49
-26 -39 -36 8 -9 90 19 110 37 10 9 39 22 64 28 40 10 47 10 58 -6 11 -15 6
-20 -49 -48 -53 -28 -69 -31 -120 -28 -33 2 -66 9 -73 15 -7 5 -20 7 -30 4 -9
-4 -50 -2 -90 5 -59 9 -73 15 -73 29 0 21 66 40 148 44 39 2 49 0 45 -11 -3
-9 3 -13 21 -13 14 0 26 5 26 10 0 6 7 10 16 10 8 0 12 4 9 10 -3 5 9 9 30 8
22 -1 40 4 45 13 5 8 37 19 72 25 93 17 98 15 43 -11z m292 -38 c-3 -8 -34
-24 -69 -37 -34 -12 -81 -31 -103 -40 -22 -10 -57 -25 -79 -34 -24 -11 -50
-15 -67 -11 -37 8 -30 21 16 29 19 4 39 16 45 26 6 12 21 20 35 20 13 0 26 4
29 9 3 5 27 12 53 16 27 4 54 12 61 17 7 6 26 11 42 10 17 0 30 4 30 10 0 6 3
9 6 5 4 -3 4 -12 1 -20z m1193 -27 c0 -5 -10 -10 -22 -10 -19 0 -20 2 -8 10
19 13 30 13 30 0z m-60 -20 c0 -5 -8 -10 -17 -10 -15 0 -16 2 -3 10 19 12 20
12 20 0z m-1176 -35 c-9 -14 -26 -25 -38 -25 -11 0 -30 -7 -41 -16 -28 -21 -3
-35 39 -23 17 5 35 9 39 9 13 0 -3 -42 -22 -63 -17 -18 -25 -17 -222 8 -112
14 -244 32 -294 40 -49 8 -119 17 -155 20 -101 10 -190 26 -196 36 -3 6 11 7
33 4 21 -2 88 -11 148 -19 61 -8 143 -18 183 -21 41 -4 81 -8 90 -10 29 -5
165 -24 212 -29 25 -3 56 -8 70 -11 l25 -7 -25 22 -25 22 24 19 c13 10 35 19
50 19 14 0 44 12 66 25 51 31 60 31 39 0z m1306 -15 c0 -5 -5 -10 -11 -10 -5
0 -7 5 -4 10 3 6 8 10 11 10 2 0 4 -4 4 -10z m-3010 -220 c0 -13 -60 -13 -80
0 -11 7 -2 10 33 10 26 0 47 -4 47 -10z m393 -17 c9 -2 15 -9 12 -14 -10 -15
-67 -9 -110 12 l-40 19 60 -6 c33 -3 68 -8 78 -11z m-394 -49 c3 -3 0 -9 -6
-15 -10 -10 -83 12 -83 26 0 7 81 -4 89 -11z m-1232 -50 c-3 -3 -12 -4 -19 -1
-8 3 -5 6 6 6 11 1 17 -2 13 -5z m-202 -50 c-6 -1 -23 -5 -38 -9 -18 -4 -27
-11 -24 -19 4 -11 0 -11 -19 -2 -13 6 -24 14 -24 17 0 9 93 27 105 20 6 -3 6
-6 0 -7z m2152 0 c-3 -3 -12 -4 -19 -1 -8 3 -5 6 6 6 11 1 17 -2 13 -5z m933
-41 l35 -14 -39 -14 c-35 -12 -43 -12 -78 6 -43 22 -48 36 -15 42 26 5 49 0
97 -20z m-1185 7 c-3 -5 -10 -10 -16 -10 -5 0 -9 5 -9 10 0 6 7 10 16 10 8 0
12 -4 9 -10z"/>
<path d="M5680 5500 c0 -5 5 -10 11 -10 5 0 7 5 4 10 -3 6 -8 10 -11 10 -2 0
-4 -4 -4 -10z"/>
<path d="M5696 5391 c-11 -12 -14 -21 -7 -26 6 -3 11 -1 11 4 0 6 7 11 15 11
8 0 15 7 15 15 0 20 -13 19 -34 -4z"/>
<path d="M5147 5313 c-9 -9 -9 -71 1 -76 14 -9 73 5 69 17 -2 6 -12 10 -21 8
-11 -2 -21 8 -29 28 -8 17 -16 27 -20 23z"/>
<path d="M5671 5139 c-27 -25 -15 -39 32 -39 27 0 27 0 12 30 -9 17 -17 30
-18 30 -2 0 -14 -10 -26 -21z"/>
<path d="M5460 4950 c-18 -12 -2 -12 25 0 13 6 15 9 5 9 -8 0 -22 -4 -30 -9z"/>
<path d="M5547 4953 c18 -2 50 -2 70 0 21 2 7 4 -32 4 -38 0 -55 -2 -38 -4z"/>
<path d="M5551 4840 c9 -5 28 -6 45 0 27 8 26 8 -16 9 -32 0 -40 -2 -29 -9z"/>
<path d="M5668 4843 c12 -2 30 -2 40 0 9 3 -1 5 -23 4 -22 0 -30 -2 -17 -4z"/>
<path d="M2180 4819 c0 -5 5 -7 10 -4 6 3 10 8 10 11 0 2 -4 4 -10 4 -5 0 -10
-5 -10 -11z"/>
<path d="M2129 4774 c-13 -15 -18 -25 -10 -22 13 4 49 48 39 48 -2 0 -15 -12
-29 -26z"/>
<path d="M1710 4632 c0 -10 72 -43 79 -36 3 3 -2 11 -10 19 -18 18 -69 31 -69
17z"/>
<path d="M1880 4624 c0 -8 5 -12 10 -9 6 3 10 10 10 16 0 5 -4 9 -10 9 -5 0
-10 -7 -10 -16z"/>
<path d="M1070 4515 c-7 -8 -8 -15 -2 -15 5 0 15 7 22 15 7 8 8 15 2 15 -5 0
-15 -7 -22 -15z"/>
<path d="M1291 4433 c-16 -18 -13 -21 27 -29 20 -4 32 -3 32 4 0 6 -7 9 -15 6
-9 -4 -15 0 -15 9 0 23 -13 27 -29 10z"/>
<path d="M1263 4386 c4 -10 1 -13 -9 -9 -21 8 -17 -10 6 -25 21 -13 25 -8 21
28 -1 12 0 12 7 2 6 -9 18 -11 38 -6 l29 8 -30 7 c-52 12 -68 10 -62 -5z"/>
<path d="M1303 4340 c-18 -28 -1 -32 20 -4 13 17 14 24 5 24 -7 0 -19 -9 -25
-20z"/>
<path d="M605 3940 c-38 -22 -66 -40 -62 -40 13 0 125 59 132 70 9 14 7 14
-70 -30z"/>
<path d="M872 3804 c10 -10 20 -16 22 -13 3 3 -5 11 -17 18 -21 13 -21 12 -5
-5z"/>
<path d="M665 3630 c3 -5 10 -10 16 -10 5 0 9 5 9 10 0 6 -7 10 -16 10 -8 0
-12 -4 -9 -10z"/>
<path d="M1495 3439 c-10 -15 3 -25 16 -12 7 7 7 13 1 17 -6 3 -14 1 -17 -5z"/>
<path d="M3171 3731 c-7 -5 -11 -14 -7 -19 9 -15 36 -4 36 14 0 16 -9 18 -29
5z"/>
<path d="M3491 3284 c0 -11 3 -14 6 -6 3 7 2 16 -1 19 -3 4 -6 -2 -5 -13z"/>
<path d="M3530 3211 c0 -10 30 -24 37 -17 3 2 -5 9 -16 16 -12 6 -21 7 -21 1z"/>
<path d="M3758 3084 c-11 -10 3 -34 19 -34 8 0 13 7 11 17 -3 18 -20 27 -30
17z"/>
<path d="M4054 2865 c26 -19 42 -19 26 0 -7 8 -20 15 -29 15 -13 -1 -13 -3 3
-15z"/>
<path d="M3880 2645 c-9 -29 -8 -37 7 -54 10 -11 24 -27 31 -35 19 -24 30 -20
46 17 29 71 29 77 4 77 -13 0 -29 5 -36 12 -23 23 -41 17 -52 -17z"/>
<path d="M3875 2530 c3 -5 8 -10 11 -10 2 0 4 5 4 10 0 6 -5 10 -11 10 -5 0
-7 -4 -4 -10z"/>
<path d="M3892 2327 c-12 -13 -19 -26 -16 -30 10 -9 42 10 54 33 15 29 -10 26
-38 -3z"/>
<path d="M4555 1920 c-3 -5 1 -10 9 -10 9 0 16 5 16 10 0 6 -4 10 -9 10 -6 0
-13 -4 -16 -10z"/>
<path d="M4617 1879 c23 -11 54 -35 68 -53 25 -32 25 -35 12 -75 -8 -22 -14
-41 -12 -41 1 0 42 19 91 41 81 38 97 42 174 43 47 0 103 -3 125 -8 66 -14 29
11 -44 29 -72 19 -144 14 -231 -15 l-54 -18 -40 45 c-22 25 -55 52 -73 59 -50
21 -64 15 -16 -7z"/>
<path d="M1963 2853 c9 -2 23 -2 30 0 6 3 -1 5 -18 5 -16 0 -22 -2 -12 -5z"/>
<path d="M2845 2161 c-6 -21 3 -51 16 -51 11 0 23 46 14 59 -10 17 -23 13 -30
-8z"/>
<path d="M2510 2154 c0 -8 5 -12 10 -9 6 3 10 10 10 16 0 5 -4 9 -10 9 -5 0
-10 -7 -10 -16z"/>
<path d="M3512 2258 c5 -15 28 -23 28 -10 0 5 -7 13 -16 16 -10 4 -14 1 -12
-6z"/>
<path d="M3560 2261 c0 -6 5 -13 10 -16 6 -3 10 1 10 9 0 9 -4 16 -10 16 -5 0
-10 -4 -10 -9z"/>
<path d="M687 1585 c3 -14 12 -25 19 -25 19 0 17 14 -5 34 -18 16 -18 16 -14
-9z"/>
<path d="M928 1593 c7 -3 16 -2 19 1 4 3 -2 6 -13 5 -11 0 -14 -3 -6 -6z"/>
<path d="M660 1490 c0 -5 5 -10 10 -10 6 0 10 5 10 10 0 6 -4 10 -10 10 -5 0
-10 -4 -10 -10z"/>
<path d="M3722 1281 c-14 -9 -2 -22 31 -34 20 -7 21 -3 7 24 -12 21 -18 23
-38 10z"/>
<path d="M3650 1251 c0 -15 10 -18 75 -25 l60 -6 -42 14 c-70 23 -93 27 -93
17z"/>
<path d="M4010 1246 c0 -2 7 -7 16 -10 8 -3 12 -2 9 4 -6 10 -25 14 -25 6z"/>
<path d="M2995 1150 c-3 -5 -2 -10 4 -10 5 0 13 5 16 10 3 6 2 10 -4 10 -5 0
-13 -4 -16 -10z"/>
<path d="M3670 1151 c0 -12 39 -35 46 -28 3 2 -7 12 -21 21 -14 9 -25 12 -25
7z"/>
<path d="M2599 1143 c-1 -5 -1 -11 0 -15 0 -5 -5 -8 -13 -8 -8 0 -17 -4 -21
-9 -3 -6 10 -7 32 -4 47 7 49 9 33 28 -13 16 -29 20 -31 8z"/>
<path d="M2943 1123 c-22 -8 -14 -23 12 -23 16 0 25 6 25 15 0 15 -14 18 -37
8z"/>
<path d="M2530 1060 c-8 -5 -29 -7 -46 -4 -18 3 -41 1 -53 -6 -17 -9 -19 -14
-11 -30 6 -11 22 -27 36 -37 24 -15 28 -15 62 1 20 10 48 24 60 33 23 14 23
15 6 34 -19 21 -32 23 -54 9z"/>
<path d="M4200 987 c0 -8 8 -25 18 -36 14 -18 21 -20 42 -12 14 5 20 10 13 10
-6 1 -25 13 -42 27 -22 19 -31 22 -31 11z"/>
<path d="M2870 1330 c0 -5 5 -10 11 -10 5 0 7 5 4 10 -3 6 -8 10 -11 10 -2 0
-4 -4 -4 -10z"/>
<path d="M2390 555 c0 -16 46 -32 58 -20 8 8 -26 35 -45 35 -7 0 -13 -7 -13
-15z"/>
<path d="M2064 6335 c-7 -17 4 -37 17 -30 12 8 12 45 -1 45 -6 0 -13 -7 -16
-15z"/>
<path d="M2118 6293 c7 -3 16 -2 19 1 4 3 -2 6 -13 5 -11 0 -14 -3 -6 -6z"/>
<path d="M1910 6266 c0 -9 5 -16 10 -16 6 0 10 4 10 9 0 6 -4 13 -10 16 -5 3
-10 -1 -10 -9z"/>
<path d="M2001 6214 c0 -11 3 -14 6 -6 3 7 2 16 -1 19 -3 4 -6 -2 -5 -13z"/>
<path d="M1369 6153 c0 -4 -2 -20 -4 -35 -4 -32 8 -44 57 -53 34 -6 38 -5 43
18 4 14 5 36 3 48 -3 21 -9 24 -50 27 -27 2 -48 -1 -49 -5z"/>
<path d="M2100 6120 c0 -5 5 -10 10 -10 6 0 10 5 10 10 0 6 -4 10 -10 10 -5 0
-10 -4 -10 -10z"/>
<path d="M1166 6074 c-10 -25 -7 -46 6 -42 14 5 23 58 9 58 -5 0 -12 -7 -15
-16z"/>
<path d="M1304 6056 c-7 -20 2 -46 16 -46 13 0 13 47 0 55 -6 3 -13 -1 -16 -9z"/>
<path d="M1837 6033 c-6 -31 1 -55 14 -47 12 7 12 74 0 74 -5 0 -11 -12 -14
-27z"/>
<path d="M650 6010 c0 -5 5 -10 11 -10 5 0 7 5 4 10 -3 6 -8 10 -11 10 -2 0
-4 -4 -4 -10z"/>
<path d="M1890 5911 c0 -30 82 -38 88 -8 3 14 -4 17 -42 17 -25 0 -46 -4 -46
-9z"/>
<path d="M32 5888 c6 -18 28 -21 28 -4 0 9 -7 16 -16 16 -9 0 -14 -5 -12 -12z"/>
<path d="M50 5850 c0 -5 5 -10 10 -10 6 0 10 5 10 10 0 6 -4 10 -10 10 -5 0
-10 -4 -10 -10z"/>
<path d="M1910 5850 c0 -5 5 -10 11 -10 5 0 7 5 4 10 -3 6 -8 10 -11 10 -2 0
-4 -4 -4 -10z"/>
<path d="M7 5829 c7 -27 23 -34 23 -11 0 11 -6 22 -14 25 -10 4 -12 0 -9 -14z"/>
<path d="M1930 5780 c-43 -7 -42 -7 23 -8 39 -1 67 2 67 8 0 11 -20 11 -90 0z"/>
<path d="M47 5753 c-4 -3 -7 -28 -7 -55 0 -34 4 -48 14 -48 10 0 13 14 12 55
-1 53 -5 63 -19 48z"/>
<path d="M31 5568 c-1 -27 3 -48 7 -48 4 0 6 17 4 38 -5 58 -10 62 -11 10z"/>
<path d="M1320 5490 c0 -5 5 -10 11 -10 5 0 7 5 4 10 -3 6 -8 10 -11 10 -2 0
-4 -4 -4 -10z"/>
<path d="M8 5413 c7 -3 16 -2 19 1 4 3 -2 6 -13 5 -11 0 -14 -3 -6 -6z"/>
<path d="M536 4953 c-11 -11 -6 -23 9 -23 8 0 15 4 15 9 0 13 -16 22 -24 14z"/>
<path d="M5617 2453 c-4 -3 -7 -11 -7 -17 0 -6 5 -5 12 2 6 6 9 14 7 17 -3 3
-9 2 -12 -2z"/>
<path d="M5654 2175 c-8 -21 3 -48 19 -43 19 7 22 58 2 58 -8 0 -18 -7 -21
-15z"/>
<path d="M6361 1943 c-18 -54 -57 -151 -87 -215 -30 -64 -54 -120 -54 -124 0
-9 -92 -265 -129 -357 -36 -91 -36 -87 -14 -87 9 0 13 -3 9 -7 -4 -4 -15 -8
-24 -8 -9 0 -17 -7 -17 -15 0 -8 -4 -21 -9 -28 -8 -14 1 -69 14 -77 4 -3 39
-7 76 -11 44 -4 73 -11 81 -21 7 -9 19 -13 29 -9 12 4 15 2 10 -9 -6 -17 29
-20 97 -9 54 9 45 24 -15 24 -28 0 -48 3 -45 7 4 3 2 12 -5 20 -17 21 -5 25
61 24 l61 -1 0 500 c0 275 -1 500 -3 500 -2 0 -18 -44 -36 -97z m-214 -799
c-3 -3 -12 -4 -19 -1 -8 3 -5 6 6 6 11 1 17 -2 13 -5z m-40 -40 c-3 -3 -12 -4
-19 -1 -8 3 -5 6 6 6 11 1 17 -2 13 -5z"/>
<path d="M5940 970 c0 -5 5 -10 11 -10 5 0 7 5 4 10 -3 6 -8 10 -11 10 -2 0
-4 -4 -4 -10z"/>
<path d="M6028 903 c7 -3 16 -2 19 1 4 3 -2 6 -13 5 -11 0 -14 -3 -6 -6z"/>
<path d="M6070 886 c6 -8 26 -20 45 -26 21 -7 32 -17 31 -28 -1 -11 7 -18 22
-20 15 -2 22 2 22 12 0 9 5 16 10 16 6 0 10 4 10 9 0 10 -27 21 -63 26 -12 1
-35 8 -50 14 -37 15 -42 14 -27 -3z"/>
<path d="M5880 870 c0 -5 -6 -10 -13 -10 -15 0 -109 -68 -139 -100 -10 -11
-26 -20 -36 -19 -10 0 -12 3 -4 6 6 2 12 9 12 14 0 6 -4 7 -10 4 -5 -3 -10 0
-10 8 0 20 -29 30 -46 16 -8 -7 -12 -20 -9 -30 5 -14 0 -22 -19 -29 -14 -5
-54 -23 -90 -40 -36 -16 -68 -30 -72 -30 -3 0 -58 -24 -123 -53 -64 -30 -140
-64 -168 -77 -51 -22 -75 -52 -56 -71 4 -4 33 2 63 15 95 41 315 124 346 132
16 4 55 20 86 35 32 16 65 29 74 29 10 0 25 6 33 14 22 19 87 25 83 8 -2 -10
4 -11 19 -7 12 4 32 1 46 -6 42 -23 187 15 198 52 12 37 -23 51 -67 28 -19
-10 -20 -9 -14 14 3 14 3 34 -2 44 -7 18 -8 18 -24 1 -10 -10 -13 -18 -8 -18
7 0 7 -6 0 -20 -6 -10 -9 -23 -8 -29 2 -5 -1 -9 -5 -9 -5 -1 -15 -9 -24 -19
-15 -19 -15 -24 2 92 1 11 4 25 5 30 5 19 0 35 -10 35 -5 0 -10 -4 -10 -10z
m-377 -227 c-7 -2 -19 -2 -25 0 -7 3 -2 5 12 5 14 0 19 -2 13 -5z"/>
<path d="M6296 871 c-8 -12 40 -24 65 -16 11 4 19 2 19 -4 0 -6 5 -11 11 -11
6 0 9 7 7 16 -3 18 -92 31 -102 15z"/>
<path d="M6070 836 c0 -11 9 -16 26 -16 31 0 28 23 -4 28 -15 2 -22 -2 -22
-12z"/>
<path d="M6190 770 c0 -5 5 -10 11 -10 5 0 7 5 4 10 -3 6 -8 10 -11 10 -2 0
-4 -4 -4 -10z"/>
<path d="M6340 750 c0 -5 5 -10 10 -10 6 0 10 5 10 10 0 6 -4 10 -10 10 -5 0
-10 -4 -10 -10z"/>
<path d="M6252 728 c7 -19 31 -21 53 -4 19 15 18 15 -18 16 -27 0 -37 -4 -35
-12z"/>
<path d="M6118 708 c-32 -9 -56 -33 -44 -45 6 -6 77 17 94 30 6 5 12 13 12 18
0 11 -13 10 -62 -3z"/>
<path d="M5700 619 c-25 -11 -115 -47 -200 -79 -273 -103 -324 -128 -286 -143
15 -6 119 25 140 42 6 5 34 15 61 24 41 12 232 85 358 136 16 6 27 17 25 24
-7 20 -50 18 -98 -4z"/>
<path d="M5025 620 c-3 -5 3 -10 14 -10 12 0 21 5 21 10 0 6 -6 10 -14 10 -8
0 -18 -4 -21 -10z"/>
<path d="M4960 495 c-19 -7 -52 -14 -72 -14 -31 -1 -38 -5 -38 -21 0 -24 20
-26 61 -5 16 9 42 17 57 18 15 1 35 10 45 20 16 16 16 17 0 16 -10 0 -34 -7
-53 -14z"/>
<path d="M5157 363 c-4 -3 -7 -13 -7 -20 0 -10 7 -12 23 -7 31 9 34 14 17 24
-18 12 -25 12 -33 3z"/>
<path d="M1375 300 c-3 -5 1 -10 9 -10 9 0 16 5 16 10 0 6 -4 10 -9 10 -6 0
-13 -4 -16 -10z"/>
<path d="M2602 255 c-16 -19 -3 -19 22 0 14 11 16 15 5 15 -8 -1 -20 -7 -27
-15z"/>
<path d="M4954 219 c-3 -5 -1 -9 5 -9 5 0 16 -3 25 -6 9 -3 16 -2 16 4 0 13
-38 23 -46 11z"/>
<path d="M2650 209 c-19 -8 -21 -12 -10 -19 11 -7 11 -11 1 -24 -12 -14 -9
-16 25 -17 65 -2 88 -5 111 -13 45 -15 13 21 -35 40 -26 9 -51 23 -57 30 -7 9
-17 9 -35 3z"/>
<path d="M2796 201 c-4 -5 -2 -12 3 -15 5 -4 12 -2 15 3 4 5 2 12 -3 15 -5 4
-12 2 -15 -3z"/>
<path d="M1250 170 c0 -5 5 -10 10 -10 6 0 10 5 10 10 0 6 -4 10 -10 10 -5 0
-10 -4 -10 -10z"/>
<path d="M648 120 c-25 -15 -12 -52 16 -44 11 3 25 10 31 15 5 5 22 9 38 9 18
0 27 4 25 13 -6 15 -87 21 -110 7z"/>
<path d="M1685 91 c-6 -11 -1 -15 47 -30 45 -15 71 -5 36 14 -37 18 -76 26
-83 16z"/>
<path d="M2566 87 c-10 -7 -17 -22 -14 -32 2 -16 18 -22 73 -32 101 -17 112
-16 118 9 8 28 -3 34 -73 48 -30 6 -62 13 -71 16 -8 2 -23 -2 -33 -9z"/>
<path d="M5510 76 c0 -13 139 -76 165 -76 l30 1 -39 21 c-33 17 -140 58 -153
58 -1 0 -3 -2 -3 -4z"/>
<path d="M1764 36 c-30 -23 -13 -26 26 -6 27 15 30 19 14 20 -11 0 -29 -6 -40
-14z"/>
<path d="M5170 40 c0 -5 6 -10 14 -10 8 0 16 -5 18 -12 3 -7 31 -13 74 -15
l69 -3 -80 24 c-92 29 -95 29 -95 16z"/>
<path d="M3680 34 c1 -25 19 -36 49 -29 33 7 43 25 14 25 -10 0 -28 3 -40 6
-13 4 -23 2 -23 -2z"/>
<path d="M1880 15 c-24 -13 -21 -14 40 -14 61 0 64 1 40 14 -14 8 -32 14 -40
14 -8 0 -26 -6 -40 -14z"/>
<path d="M3470 15 c-11 -13 -5 -15 46 -15 53 0 56 1 38 15 -25 19 -68 19 -84
0z"/>
<path d="M1193 3 c9 -2 25 -2 35 0 9 3 1 5 -18 5 -19 0 -27 -2 -17 -5z"/>
<path d="M2118 3 c7 -3 16 -2 19 1 4 3 -2 6 -13 5 -11 0 -14 -3 -6 -6z"/>
</g>
</svg>
